<svg xmlns="http://www.w3.org/2000/svg" width="354.111" height="39.229" viewBox="0 0 354.111 39.229">
  <path id="Path_1" data-name="Path 1" d="M337.688,29.807V1.036H326.749V29.807H313.3V1.036h-10.94V30.508L291.879,1.036H278.012L267.579,30.361V1.036H256.64V15.422H245.319V1.036H224.252V22.478h-.273L211.43,1.036H200.9v8.28C197.906,3.639,192.22,0,184.572,0c-8.511,0-14.583,4.468-17.251,11.221C166.654,3.5,160.535,0,151.889,0,145.3,0,139.955,2.015,137.6,6.28V1.036H127.283V6.855c-2.24-3.559-6.518-5.819-13.337-5.819H97.634v5.79c-2.245-3.543-6.519-5.79-13.319-5.79H68V32.5L56.988,1.036H43.567l-11,31.415V1.036H22.26V15.658H10.312V1.036H0V39.227H10.312v-15H22.26v15h18.8L42.912,33.5H57.643L59.5,39.227H78.313V27.661h5.074L89.77,39.227h18.175V27.661h5.074L119.4,39.227H137.6V33.462c2.776,3.866,7.852,5.765,14.349,5.765,7.788,0,14.781-2.642,16.13-9.617,2.965,5.826,8.71,9.617,16.5,9.617,7.648,0,13.334-3.687,16.328-9.38v9.38h10.312V18.495h.218L223.6,39.227h21.722V24.466H256.64V39.228h19.313l1.855-5.636h14.274l1.855,5.636h60.173V29.807ZM45.313,25.915,50,11.4h.546l4.692,14.513Zm38.674-7.2H78.313V9.984h5.674c3.546,0,4.911,1.91,4.911,4.365s-1.364,4.365-4.911,4.365M97.634,35.168l-5.081-8.817a11.177,11.177,0,0,0,5.081-4.36Zm15.986-16.455h-5.674V9.984h5.674c3.546,0,4.91,1.91,4.91,4.365s-1.364,4.365-4.91,4.365M127.283,35.2l-5.1-8.847a11.173,11.173,0,0,0,5.1-4.389ZM152,30.716c-4.365,0-5.838-2.455-6-5.347h-8.4V17.091c2.039,3.52,6.161,4.991,10.2,5.768l5.511,1.091c2.946.6,4.037,1.473,4.037,3.164,0,2.4-2.182,3.6-5.347,3.6m13.819-10.433c-2-2.054-5.362-3.622-10.71-4.68l-4.91-.982c-2.51-.546-3.055-1.91-3.055-2.892,0-1.473,1.037-3.219,4.474-3.219,2.564,0,5.238.873,5.019,4.146h10.176a23.369,23.369,0,0,0-1.008,6.929c0,.234.008.465.014.7m18.754,10.051c-5.62,0-8.075-4.8-8.075-10.748,0-6.056,2.455-10.694,8.075-10.694,5.565,0,8.02,4.638,8.02,10.694,0,5.947-2.455,10.748-8.02,10.748M353.483,38.61H294.394l-1.855-5.636H277.351L275.5,38.61H257.268V23.849H244.691V38.61h-9.684V1.654h9.684V16.039h12.576V1.654h9.684v32.34l11.505-32.34h12.976l11.558,32.488V1.654h9.684V30.425h14.7V1.654h9.684V30.425h16.423ZM284.444,11.235l-4.9,14.9h10.792l-4.9-14.9Zm-4.033,14.278L284.9,11.852h.089l4.489,13.661Z" transform="translate(0 0.001)" fill="#ffa702"/>
</svg>
